# xmcd CD database file
#
# Track frame offsets:
#	200
#	11255
#	24775
#	36210
#	48360
#	64362
#	80727
#	91177
#	102180
#	113480
#	124780
#	138692
#
# Disc length: 2105 seconds
#
# Revision: 3
# Processed by: cddbd v1.5.2PL0 Copyright (c) Steve Scherf et al.
# Submitted via: CDex 1.70beta2
#
DISCID=9208370c
DTITLE=Shack Of Peasants - Classic Blues Volume I
DYEAR=1993
DGENRE=Blues
TTITLE0=Gwine Dig A Hole To Put The Devil In
TTITLE1=Gonna Sit On The Banks Of The River
TTITLE2=I Shall Not Be Moved
TTITLE3=Stand By Me
TTITLE4=Death Has No Mercy Seat
TTITLE5=Tears Of Faith
TTITLE6=Nobody's Fault But Mine
TTITLE7=Down On Me
TTITLE8=Cincinnati Flow Rag
TTITLE9=Denomination Blues
TTITLE10=Glory Glory Hallelujah
TTITLE11=Tribute
EXTD=YEAR: 1993
EXTT0=Lanny Cordola
EXTT1=Philip Bardowell
EXTT2=Philip Bardowell and Darrell Mansfield
EXTT3=Crystal Lewis
EXTT4=Darrell Mansfield
EXTT5=
EXTT6=Darrell Mansfield
EXTT7=
EXTT8=Lanny Cordola
EXTT9=Philip Bardowell and Lanny Cordola
EXTT10=Crystal Lewis
EXTT11=Crystal lewis, Philip Bardowell and Darrell Mansfield
PLAYORDER=
